<?xml version="1.0" encoding="UTF-8" standalone="no"?>
<!DOCTYPE svg PUBLIC "-//W3C//DTD SVG 1.1//EN" "http://www.w3.org/Graphics/SVG/1.1/DTD/svg11.dtd">
<svg version="1.1" xmlns="http://www.w3.org/2000/svg" xmlns:xlink="http://www.w3.org/1999/xlink" preserveAspectRatio="xMidYMid meet" viewBox="0 0 640 640" width="640" height="640"><defs><path d="M416.46 429.69L320.59 263.6L224.27 430.38L195.71 479.86L194.52 481.95C209.28 490.38 217.47 495.06 219.11 496C282.02 531.79 359.24 531.31 421.69 494.73C421.73 494.71 421.9 494.62 422.2 494.45C422.29 494.62 422.35 494.71 422.36 494.73C425.66 492.8 428.88 490.77 432.07 488.65C432.98 488.11 437.58 485.43 445.84 480.59L445.04 479.24L416.46 429.69ZM273.1 458.63C276.27 453.15 292.1 425.73 320.59 376.38C348.83 425.31 364.52 452.49 367.66 457.93C352.12 463.35 335.78 466.12 319.32 466.12C303.61 466.12 288.01 463.59 273.1 458.63Z" id="b17kFCHbkH"></path><path d="M145.3 217.48C104.53 287.01 108.89 374.1 156.4 439.22C159.61 433.66 185.29 389.15 188.5 383.59C153.32 311.04 183.62 223.7 256.18 188.53C272.83 180.45 290.87 175.62 309.33 174.28C312.89 174 316.4 173.88 319.96 173.88C325.89 173.88 330.63 174.31 331.82 174.36C353.68 176.12 374.87 182.79 393.8 193.88C438.39 220.06 466.1 268.37 466.1 319.99C466.07 341.61 461.25 362.96 451.96 382.48C455.18 388.06 480.96 432.71 484.18 438.29C509.03 403.84 522.43 362.47 522.51 320C522.51 248.46 484.15 181.49 422.36 145.24C325.9 88.68 201.86 121.03 145.3 217.48Z" id="b14eaShfnc"></path><path d="M197.16 30.48C37.27 97.84 -37.75 282.07 29.61 441.96C96.96 601.86 281.19 676.87 441.08 609.52C557.55 560.45 633.28 446.38 633.28 320C633.33 278.1 624.95 236.63 608.64 198.04C541.28 38.14 357.06 -36.87 197.16 30.48ZM63.11 320C63.11 178.12 178.12 63.11 320 63.11C461.88 63.11 576.89 178.12 576.89 320C576.89 461.88 461.88 576.89 320 576.89C178.12 576.89 63.11 461.88 63.11 320Z" id="bQdgA0wlU"></path></defs><g><g><g><use xlink:href="#b17kFCHbkH" opacity="0.4" fill="#0e3e9b" fill-opacity="1"></use><g><use xlink:href="#b17kFCHbkH" opacity="0.4" fill-opacity="0" stroke="#000000" stroke-width="1" stroke-opacity="0"></use></g></g><g><use xlink:href="#b14eaShfnc" opacity="0.4" fill="#0e3e9b" fill-opacity="1"></use><g><use xlink:href="#b14eaShfnc" opacity="0.4" fill-opacity="0" stroke="#000000" stroke-width="1" stroke-opacity="0"></use></g></g><g><use xlink:href="#bQdgA0wlU" opacity="0.4" fill="#0e3e9b" fill-opacity="1"></use><g><use xlink:href="#bQdgA0wlU" opacity="0.4" fill-opacity="0" stroke="#000000" stroke-width="1" stroke-opacity="0"></use></g></g></g></g></svg>